<?xml version="1.0" encoding="utf-8"?>
<!-- Generator: Adobe Illustrator 27.4.0, SVG Export Plug-In . SVG Version: 6.00 Build 0)  -->
<svg version="1.1" id="레이어_1" xmlns="http://www.w3.org/2000/svg" xmlns:xlink="http://www.w3.org/1999/xlink" x="0px"
	 y="0px" viewBox="0 0 595.3 595.3" style="enable-background:new 0 0 595.3 595.3;" xml:space="preserve">
<style type="text/css">
	.st0{fill:#64A9C4;}
	.st1{fill:#FFFFFF;}
</style>
<path class="st0" d="M594.9,402L594.9,402V109.7C594.9,49.1,545.8,0,485.2,0H109.7C49.1,0,0,49.1,0,109.7v375.5
	c0,60.6,49.1,109.7,109.7,109.7h375.5c4.7,0,9.3,0.6,13.8,0h95.9V402z"/>
<g>
	<g>
		<g>
			<path class="st1" d="M64.8,249.4H48.7c-8.7,0-15.7-7.1-15.7-15.7c0-8.6,7.1-15.7,15.7-15.7h16.1c8.7,0,15.7,7.1,15.7,15.7
				C80.5,242.3,73.4,249.4,64.8,249.4z"/>
		</g>
		<path class="st1" d="M170.9,273.8c-23.4-0.1-42.5-19.2-42.5-42.8s19.1-42.8,42.8-42.8c19,0,35.1,12.4,40.6,29.5
			c8.7-5.6,18.5-9.7,29-12.1c-10.4-28.3-37.6-48.7-69.6-48.7c-40.9,0-74.2,33.3-74.2,74.2c0,39.9,31.8,72.5,71.2,74
			c-0.3-2.5-0.4-5.1-0.4-7.7C167.9,289.2,168.9,281.4,170.9,273.8z"/>
		<path class="st1" d="M484.3,331.5c-1.9,0-3.8,0.1-5.6,0.3c0.3-2.4,0.4-4.9,0.4-7.5c0-41.4-33.5-75-75-75
			c-17.1,0-32.9,5.7-45.4,15.3c-15.8-29.9-47.1-50.2-83.3-50.2c-7.3,0-14.6,0.9-21.4,2.4c-10.4,2.4-20.1,6.6-29,12.1
			c-19.9,12.7-34.8,32.5-40.9,55.9c-1.9,7.6-3,15.4-3,23.5c0,2.5,0.1,5.2,0.4,7.7c0.4,3.9,0.9,7.8,1.6,11.6
			c-31.1,2.9-55.6,29.1-55.6,61c0,33.9,27.5,59.1,61.4,59.1h295.4c32.1,0,58.2-26.1,58.2-58.2C542.6,357.6,516.5,331.5,484.3,331.5z
			"/>
		<g>
			<path class="st1" d="M170.6,140.7c-8.7,0-15.7-7.1-15.7-15.7v-16.1c0-8.7,7.1-15.7,15.7-15.7s15.7,7.1,15.7,15.7V125
				C186.3,133.6,179.2,140.7,170.6,140.7z"/>
		</g>
		<g>
			<path class="st1" d="M96.4,171.9c-4.4,0-8.7-1.8-11.8-5.3l-10.5-12c-5.7-6.6-5.1-16.5,1.5-22.1c6.6-5.7,16.5-5.1,22.1,1.5
				l10.5,12c5.7,6.6,5.1,16.5-1.5,22.1C103.7,170.6,100.1,171.9,96.4,171.9z"/>
		</g>
		<g>
			<path class="st1" d="M254.2,171.9c-3.7,0-7.3-1.3-10.4-3.9c-6.6-5.7-7.2-15.6-1.5-22.1l10.5-12c5.7-6.6,15.6-7.2,22.1-1.5
				c6.6,5.7,7.2,15.6,1.5,22.1l-10.5,12C262.8,170.1,258.5,171.9,254.2,171.9z"/>
		</g>
		<g>
			<path class="st1" d="M87.4,339.7c-3.8,0-7.6-1.4-10.6-4.2c-6.3-5.8-6.8-15.8-0.9-22.1l10.9-11.8c5.8-6.3,15.8-6.8,22.1-0.9
				c6.3,5.8,6.8,15.8,0.9,22.1l-10.9,11.8C95.9,338.1,91.6,339.7,87.4,339.7z"/>
		</g>
	</g>
</g>
</svg>
