<?xml version="1.0" encoding="utf-8"?>
<!-- Generator: Adobe Illustrator 27.4.0, SVG Export Plug-In . SVG Version: 6.00 Build 0)  -->
<svg version="1.1" id="레이어_1" xmlns="http://www.w3.org/2000/svg" xmlns:xlink="http://www.w3.org/1999/xlink" x="0px"
	 y="0px" viewBox="0 0 274.9 48.5" style="enable-background:new 0 0 274.9 48.5;" xml:space="preserve">
<style type="text/css">
	.st0{fill:#916F61;}
</style>
<g>
	<path class="st0" d="M40.4,25.9c1.8,0.1,4.5,0.4,5.7,0.8c0.4,0.1,0.7,0.4,0.7,0.8c0,0.9-0.6,1.6-1.1,1.9c-1.4-0.2-4.3-0.3-5.9-0.3
		c-1.7,0-8.1,0.1-14.4,0.1V38c0,2.6-0.5,7.6-1.2,10.3h-2.1c-0.2-2.3-0.3-6.9-0.3-9.2v-9.8c-5.4,0.1-10.2,0.2-11.3,0.3
		c-1.3,0.1-3.8,0.6-5,1c-1.8-0.6-3.7-1.7-4.9-2.7c-0.2-0.1-0.2-0.3-0.2-0.5l0.4-0.7c1.7,0.3,4,0.5,5.6,0.5
		c3.1,0.1,28.8-0.3,32.3-0.5L40.4,25.9z M11.4,13c0-6,5.3-9.8,12-9.8c6.6,0,12,3.9,12,9.8c0,5.9-5.4,9.8-12,9.8
		C16.8,22.8,11.4,18.9,11.4,13z M15.1,13c0,4.6,3.8,7.2,8.3,7.2c4.5,0,8.3-2.6,8.3-7.2c0-4.6-3.8-7.3-8.3-7.3
		C18.9,5.8,15.1,8.4,15.1,13z"/>
	<path class="st0" d="M77.9,0.3C77.9,0.1,78,0,78.4,0c1.9,0.1,5,0.7,6.5,1.3c0.5,0.2,0.6,0.5,0.6,1L85.4,5v33
		c0,2.9-0.5,7.7-1.2,10.5h-2.1c-0.2-2.1-0.3-7.1-0.3-9.3v-7.9c-7.3,2.3-17.1,3.9-23.8,4.3c-0.6,0.1-1.2,0.1-1.7,0.1
		c-1.7,0-2.8-1-3.3-2.5c-0.2-0.5-0.3-1.3-0.3-2.3V22c-0.7-0.6-1.8-1.1-3-1.3l0.2-1c0.1-0.2,0.3-0.3,0.6-0.3c1.4,0,4.6,0.1,6.1,0.2
		c2.8-0.1,9.2-0.2,10.7-0.3l0.9-0.3c0.2-2,0.3-7.3,0.2-9.2c-2.3,0-9,0.2-10.4,0.3c-0.9,0.1-2.6,0.4-3.8,0.8
		c-1.5-0.6-2.8-1.4-3.9-2.2c-0.2-0.2-0.2-0.4-0.2-0.5l0.4-0.7C51.8,7.9,53.6,8,54.8,8c2,0.1,11.3-0.2,13.7-0.4L70,6.9
		c0.3-0.2,0.6-0.2,0.9,0c0.6,0.3,1.6,0.9,2,1.2C73,8.2,73,8.4,72.9,8.7L72.4,10c-0.1,2.5-0.7,6.9-1.1,9l1,0.5
		c0.2,0.1,0.3,0.3,0.3,0.5c0,0.5-0.3,1.1-0.5,1.3l-15.5,0.5v9.8c0,0.7,0.2,0.9,0.9,0.9c6.5-0.1,17.4-1.4,24.4-3.3V4
		c-0.9-1.1-2.5-2-4.3-2.6L77.9,0.3z"/>
	<path class="st0" d="M123.7,0.3c0.1-0.2,0.2-0.3,0.6-0.3c1.9,0.1,5,0.7,6.5,1.3c0.5,0.2,0.7,0.5,0.7,1L131.2,5v33
		c0,2.9-0.5,7.7-1.2,10.5H128c-0.2-2.1-0.3-7.1-0.3-9.3v-6.5c-6.5,1.6-19.5,3.3-26.4,3.6c-1,0.1-3,0.6-3.9,0.9c-1.8-0.7-3.7-1.9-5-3
		c-0.2-0.2-0.3-0.3-0.2-0.5l0.3-0.7c1.8,0.4,3.9,0.5,5.6,0.5c7.6-0.2,22.2-1.5,29.6-2.8V4c-0.9-1.1-2.5-2-4.3-2.6L123.7,0.3z
		 M97.3,16.3c0-5.6,4.7-9.7,11.1-9.7c6.4,0,11.1,4.1,11.1,9.7c0,5.6-4.7,9.7-11.1,9.7C102,25.9,97.3,21.8,97.3,16.3z M101,16.3
		c0,4.2,3.2,7,7.4,7c4.2,0,7.4-2.7,7.4-7c0-4.3-3.2-7.1-7.4-7.1C104.2,9.2,101,11.9,101,16.3z"/>
	<path class="st0" d="M161.6,31.6c0.1,0.2-0.1,0.3-0.3,0.4c-3.8,1.5-9.9,2.7-13.6,3c-0.5,0.1-1.3,0.1-1.7,0.1
		c-1.8,0-2.7-0.6-3.3-2.1c-0.2-0.3-0.3-1.2-0.3-2.4v-18c-0.8-0.7-1.9-1.1-3.2-1.4l0.3-1.2c0.1-0.2,0.3-0.3,0.6-0.3
		c1.4,0,4.6,0.2,6,0.4c1.9-0.1,6.7-0.3,7.9-0.5l1.2-0.8c1.1,0,2.9,0.2,3.7,0.3c0.4,0.1,0.6,0.3,0.6,0.7c0,0.8-0.2,1.5-0.5,1.8
		c-0.1,0.1-0.4,0.2-0.7,0.2l-12.3,0.6v8.3c1.7-0.1,4.9-0.2,6.2-0.3l1.3-0.7c1.2,0,2.7,0.1,3.6,0.3c0.4,0.1,0.7,0.4,0.7,0.7
		c0,0.7-0.3,1.3-0.5,1.5c-0.1,0.2-0.4,0.2-0.7,0.2l-10.5,0.5v8.4c0,0.6,0.3,0.9,0.9,0.9c3.9,0.1,10.4-0.7,13.9-1.5
		c0.3-0.1,0.4,0,0.5,0.2L161.6,31.6z M163.3,3.9c0.1-0.2,0.3-0.3,0.6-0.3c1.6,0.1,4.3,0.7,5.6,1.2c0.4,0.2,0.6,0.5,0.6,1l-0.1,2.2
		v27.5c0,2.7-0.5,7.2-1.2,9.8h-2c-0.2-2.1-0.3-6.5-0.3-8.6v-15c-0.8,0-1.7,0.1-2.1,0.1c-0.9,0.1-2.1,0.3-2.9,0.6
		c-1.1-0.5-2.1-1.1-2.9-1.8c-0.2-0.2-0.2-0.3-0.2-0.5l0.3-0.5c1,0.2,2.2,0.2,3.3,0.2c1.1,0,2.9-0.1,4.3-0.1V7.3
		c-0.7-0.9-2.1-1.7-3.6-2.2L163.3,3.9z M171.5,0.3c0.1-0.2,0.3-0.3,0.6-0.3c1.7,0.1,4.7,0.7,6,1.3c0.5,0.2,0.7,0.5,0.6,1l-0.1,2.5
		v33.8c0,2.8-0.5,7.3-1.2,10h-2c-0.2-2-0.3-6.7-0.3-8.8V3.9c-0.8-1-2.3-1.9-3.9-2.4L171.5,0.3z"/>
	<path class="st0" d="M197.9,31.2c-6.7,0-11.7-4.5-11.7-10.9c0-6.4,4.9-10.8,11.7-10.8c6.7,0,11.6,4.4,11.6,10.8
		C209.4,26.7,204.6,31.2,197.9,31.2z M197.9,12.3c-4.4,0-7.8,3-7.8,8c0,5.1,3.4,8.1,7.8,8.1c4.4,0,7.8-3,7.8-8.1
		C205.7,15.3,202.3,12.3,197.9,12.3z M218.8,48.5c-0.2-2.1-0.3-7.1-0.3-9.3V4c-0.9-1.1-2.5-2-4.3-2.6l0.4-1.2
		c0.1-0.2,0.2-0.3,0.6-0.3c1.9,0.1,5,0.7,6.5,1.3c0.5,0.2,0.6,0.5,0.6,1L222.1,5v33c0,2.9-0.5,7.7-1.2,10.5H218.8z"/>
	<path class="st0" d="M268.3,22.5c1.8,0.1,4.5,0.4,5.7,0.8c0.4,0.2,0.7,0.4,0.7,0.9c0,0.8-0.6,1.6-1.1,1.8c-1.4-0.2-4.3-0.3-5.9-0.3
		c-3.5,0-26.6,0.3-29.3,0.4c-1.3,0.1-3.8,0.6-5,1c-1.8-0.6-3.7-1.6-4.9-2.6c-0.2-0.2-0.2-0.3-0.2-0.5l0.4-0.8c1.7,0.4,4,0.6,5.6,0.6
		c3.1,0.1,28.8-0.3,32.3-0.5L268.3,22.5z M239.4,5.5c-0.7-0.6-2-1.3-3.2-1.6l0.3-1.2c0-0.1,0.2-0.2,0.6-0.2c1.5-0.1,4.2,0.2,5.5,0.6
		c0.4,0.1,0.5,0.3,0.5,0.8L243,6.1L243,8.1L260.6,8V3.8c-0.7-0.7-1.8-1.4-3.1-1.8l0.4-1.3c0.1-0.2,0.2-0.3,0.6-0.2
		c1.5,0.1,4,0.6,5.2,1c0.4,0.2,0.6,0.4,0.6,0.8l-0.1,2.2l-0.2,6.9c0,1.4-0.2,3.2-0.5,4.4l0.8,0.3c0.3,0.1,0.4,0.3,0.4,0.5
		c0,0.6-0.2,1.2-0.5,1.4c-4.4,0-17,0.1-21.5,0.1c-0.2,0.7-0.5,1.2-0.8,1.6h-2c-0.3-0.7-0.4-1.8-0.4-2.7L239.4,5.5z M262.2,44.2
		c1.4,0,3.4,0.1,4.4,0.3c0.4,0.1,0.7,0.4,0.7,0.7c0,0.9-0.4,1.5-0.6,1.7c-0.2,0.2-0.4,0.3-0.7,0.3l-22.8,0.1c-2.9,0-3.8-0.9-3.8-3.1
		v-4.3c-0.7-0.6-1.7-1.1-2.9-1.3l0.2-1c0.1-0.2,0.2-0.3,0.5-0.3c1.4,0,4.6,0.1,5.9,0.3c3.8-0.1,14-0.2,16-0.3L260,37
		c0.2-1.2,0.2-3.8,0.2-5c-3.3-0.1-13.4,0.1-15.5,0.2c-1,0.1-2.8,0.4-4,0.8c-1.5-0.5-2.9-1.3-4-2.1c-0.2-0.2-0.2-0.3-0.2-0.5l0.3-0.5
		c1.3,0.3,3.2,0.4,4.5,0.4c2.7,0,15.7-0.1,19.1-0.3l1.5-0.7c0.2-0.1,0.6-0.1,0.8,0c0.5,0.2,1.5,0.7,2,1c0.2,0.2,0.2,0.4,0.1,0.7
		l-0.6,1.2c-0.1,1.4-0.6,3.8-1,5l1,0.5c0.2,0.1,0.3,0.3,0.3,0.4c0,0.6-0.3,1.1-0.5,1.3l-20.7,0.3v4.7c0,0.6,0.3,0.9,0.9,0.9
		c3.8,0.1,13.6,0,16.7-0.2L262.2,44.2z M243,10.4l-0.1,5.5l17.7-0.1v-5.6L243,10.4z"/>
</g>
</svg>
