<svg width="120" height="26" viewBox="0 0 120 26" fill="none" xmlns="http://www.w3.org/2000/svg">
<g clip-path="url(#clip0)">
<path d="M21.0646 13.8219C22.0247 13.8352 22.9807 13.9512 23.9167 14.168C24.0131 14.1893 24.0998 14.2421 24.1636 14.3184C24.2273 14.3946 24.2644 14.49 24.2692 14.5898C24.2608 14.7711 24.2075 14.9474 24.1142 15.1024C24.0208 15.2574 23.8905 15.3861 23.7351 15.4767C23.0515 15.4009 21.5346 15.3469 20.7442 15.3469L12.9678 15.4009V20.3219C12.9433 22.0932 12.7682 23.859 12.4444 25.5998H11.4616C11.4082 24.3668 11.3548 22.0956 11.3548 20.8627V15.455C8.39594 15.5091 5.74684 15.5632 5.17002 15.5956C4.30135 15.6814 3.44284 15.8517 2.60637 16.1039C1.69674 15.8157 0.843675 15.3692 0.085453 14.7845C0.01068 14.6979 -0.0213656 14.6439 0.01068 14.5682L0.192272 14.1896C1.12707 14.357 2.07374 14.4475 3.02296 14.46C4.61456 14.46 18.3087 14.2978 20.1139 14.1896L21.0646 13.8219ZM5.83229 6.85685C5.83229 3.69878 8.63094 1.68713 12.0491 1.68713C15.4673 1.68713 18.2553 3.69878 18.2553 6.85685C18.2553 10.0149 15.4566 12.0266 12.0491 12.0266C8.64162 12.0266 5.83229 9.99329 5.83229 6.85685ZM7.4773 6.85685C7.4773 9.39845 9.61367 10.8153 12.0491 10.8153C14.4846 10.8153 16.5889 9.39845 16.5889 6.85685C16.5889 4.31525 14.4526 2.88763 12.0491 2.88763C9.64572 2.88763 7.4773 4.32607 7.4773 6.85685Z" fill="#937062"/>
<path d="M40.5911 0.129784C40.5911 0 40.5911 0 40.8154 0C41.9053 0.0798855 42.9814 0.294171 44.02 0.638103C44.1221 0.674027 44.2092 0.743728 44.2674 0.835955C44.3255 0.928183 44.3512 1.03756 44.3404 1.14642L44.255 2.51997V20.376C44.2352 22.1583 44.0601 23.9353 43.7316 25.6864H42.7275C42.6741 24.5291 42.6207 22.1498 42.6207 20.9925V16.5474C38.4414 17.7762 34.1441 18.5485 29.8024 18.8511C29.5285 18.8659 29.2539 18.8659 28.9799 18.8511C28.6207 18.8539 28.2711 18.7337 27.9879 18.5098C27.7048 18.2859 27.5048 17.9717 27.4204 17.6181C27.3232 17.2406 27.28 16.8509 27.2922 16.4609V11.594C26.8219 11.2495 26.2755 11.0267 25.7006 10.9451L25.8074 10.4368C25.8074 10.3611 25.9142 10.307 26.0745 10.307C26.7581 10.307 28.3177 10.307 29.012 10.4151C30.5929 10.4151 34.2461 10.307 35.0686 10.2205L35.4852 10.0907C35.592 9.00915 35.6241 6.0782 35.5706 5.02912C34.4063 5.02912 30.6463 5.10483 29.8879 5.19135C29.221 5.2567 28.5624 5.39078 27.9224 5.59151C27.2196 5.32062 26.5551 4.95697 25.9463 4.50998C25.9295 4.48285 25.9189 4.45228 25.9152 4.42048C25.9115 4.38869 25.9148 4.35646 25.9249 4.32612L26.0852 4.02329C26.8184 4.15644 27.5621 4.2216 28.307 4.21797C29.3752 4.21797 34.2568 4.10982 35.6347 4.00166L36.3184 3.61231C36.4522 3.5587 36.6011 3.5587 36.735 3.61231C37.0654 3.79359 37.3863 3.99214 37.6963 4.20715C37.7925 4.28286 37.7925 4.39102 37.6963 4.5208L37.4079 5.19135C37.3428 6.85403 37.1572 8.50962 36.8525 10.1448L37.3545 10.4151C37.3958 10.4339 37.4308 10.4642 37.4554 10.5026C37.48 10.5409 37.4932 10.5857 37.4934 10.6314C37.4833 10.8537 37.4091 11.0681 37.2797 11.2479L28.9693 11.4859V16.9476C28.9693 17.272 29.0761 17.4343 29.4713 17.4343C33.8897 17.3221 38.282 16.7127 42.5673 15.6173V2.03328C41.9524 1.41168 41.1971 0.951335 40.3668 0.69218L40.5911 0.129784Z" fill="#937062"/>
<path d="M64.6894 0.129784C64.6894 0.0216306 64.7641 0 64.9778 0C66.068 0.0770414 67.1445 0.291395 68.1823 0.638103C68.2844 0.674027 68.3715 0.743728 68.4297 0.835955C68.4878 0.928183 68.5136 1.03756 68.5028 1.14642V2.51997V20.376C68.4882 22.1602 68.3022 23.9387 67.9473 25.6864H66.9966C66.9112 24.5291 66.8578 22.1498 66.8578 20.9925V17.3045C62.2014 18.2891 57.4828 18.9432 52.7363 19.2621C52.0515 19.3323 51.3774 19.4847 50.7282 19.7163C49.776 19.3541 48.8802 18.8551 48.0684 18.2346C48.0446 18.2232 48.0235 18.2069 48.0062 18.1869C47.9889 18.1669 47.9759 18.1435 47.9679 18.1181C47.9598 18.0928 47.957 18.0661 47.9596 18.0396C47.9622 18.0131 47.9702 17.9875 47.9829 17.9642L48.1218 17.6722C49.0637 17.8348 50.0186 17.9072 50.9738 17.8885C56.2618 17.7007 61.5339 17.1914 66.7616 16.3636V2.03328C66.1312 1.39923 65.352 0.937758 64.4971 0.69218L64.6894 0.129784ZM50.8029 8.54409C50.8029 5.59151 53.2918 3.39601 56.5711 3.39601C59.8505 3.39601 62.3393 5.55907 62.3393 8.54409C62.3393 11.5291 59.8505 13.6597 56.5711 13.6597C53.2918 13.6597 50.7709 11.4859 50.7709 8.54409H50.8029ZM52.5227 8.54409C52.5971 9.57977 53.0559 10.5486 53.8069 11.2557C54.558 11.9629 55.5455 12.3559 56.5711 12.3559C57.5967 12.3559 58.5843 11.9629 59.3354 11.2557C60.0864 10.5486 60.5452 9.57977 60.6196 8.54409C60.6196 7.45697 60.193 6.41437 59.4338 5.64566C58.6746 4.87695 57.6448 4.44509 56.5711 4.44509C55.4974 4.44509 54.4677 4.87695 53.7085 5.64566C52.9492 6.41437 52.5227 7.45697 52.5227 8.54409Z" fill="#937062"/>
<path d="M79.4196 8.65225C77.5989 11.2846 75.2963 13.5389 72.6367 15.2928C72.5988 15.3236 72.5517 15.3403 72.5031 15.3403C72.4546 15.3403 72.4075 15.3236 72.3696 15.2928L72.1346 15.0549C72.1346 14.9792 72.1346 14.8927 72.1346 14.817C75.8412 11.6805 78.6506 7.57071 79.6546 4.15308C79.2943 3.52473 78.7742 3.00562 78.1485 2.64975L78.4156 2.16306C78.4156 2.08735 78.5437 2.05491 78.704 2.08735C79.6376 2.30479 80.5316 2.66977 81.3531 3.16888C81.4426 3.20989 81.518 3.27716 81.5694 3.362C81.6208 3.44683 81.6459 3.54533 81.6415 3.64476C81.6435 3.82646 81.6256 4.00783 81.5881 4.18552C81.2164 5.42601 80.6848 6.61148 80.0072 7.71131L83.8419 10.8153L84.9101 11.183C85.4189 11.7444 85.8699 12.3568 86.256 13.0108C86.4089 13.2071 86.4849 13.4535 86.4697 13.703C86.3957 13.845 86.2797 13.9599 86.138 14.0317C85.9962 14.1035 85.8357 14.1285 85.6792 14.1032C85.4628 14.0038 85.2642 13.8685 85.0917 13.703L79.4196 8.65225ZM90.2938 16.3311C90.3562 16.304 90.4235 16.2901 90.4914 16.2901C90.5593 16.2901 90.6266 16.304 90.689 16.3311C91.0007 16.5092 91.3004 16.7079 91.5863 16.926C91.6202 16.9669 91.6388 17.0186 91.6388 17.072C91.6388 17.1254 91.6202 17.1771 91.5863 17.218L91.2872 17.9642L91.2124 22.0632C91.2084 23.3722 91.0687 24.6772 90.7958 25.9567H89.7917C89.6849 25.0158 89.6529 23.4368 89.6529 22.4742V17.8128C87.7301 17.8128 81.9085 17.8669 80.7442 17.9426C79.9708 17.9893 79.2064 18.1347 78.469 18.3752C77.6764 18.1018 76.9277 17.7118 76.2471 17.218C76.2091 17.1935 76.1808 17.1562 76.1671 17.1127C76.1534 17.0692 76.1553 17.0223 76.1724 16.98L76.3219 16.6556C77.1427 16.8111 77.9757 16.8908 78.8108 16.8935C80.0819 16.8935 87.9651 16.7637 89.6529 16.6556L90.2938 16.3311ZM89.8131 2.03328C89.192 1.41612 88.4282 0.966226 87.5913 0.724626L87.7835 0.129784C87.7835 0.0216306 87.8583 0 88.0399 0C89.1296 0.0809478 90.2056 0.295208 91.2445 0.638103C91.3406 0.679589 91.4207 0.751646 91.4727 0.843365C91.5248 0.935083 91.5459 1.04147 91.5329 1.14642V2.51997V11.302C91.5746 12.7327 91.387 14.1608 90.9774 15.5308H90.0267C89.9199 14.6223 89.9199 12.8594 89.9199 11.8644L89.8131 2.03328Z" fill="#937062"/>
<path d="M117.329 8.11148C118.105 8.08535 118.881 8.13242 119.647 8.25208C119.739 8.27519 119.822 8.32573 119.885 8.39711C119.948 8.46849 119.988 8.5574 120 8.65225C120.02 8.81034 120.001 8.97092 119.945 9.1199C119.889 9.26887 119.798 9.40168 119.68 9.50665C119.541 9.57823 119.387 9.6153 119.231 9.61481L114.52 9.73378V11.8968C114.56 13.3288 114.384 14.7585 113.997 16.1364H113.014C112.907 15.3037 112.907 13.584 112.907 12.5674C108.84 13.817 104.648 14.6042 100.409 14.9143C100.135 14.9296 99.8609 14.9296 99.5869 14.9143C99.2351 14.9149 98.8933 14.7958 98.6163 14.5761C98.3393 14.3565 98.1432 14.049 98.0594 13.703C97.9517 13.32 97.9048 12.9221 97.9206 12.5241V4.95341C97.4151 4.60396 96.8311 4.38829 96.2221 4.32612L96.3503 3.76373C96.3503 3.6772 96.4571 3.62313 96.6174 3.62313C97.6366 3.63524 98.6538 3.71836 99.6617 3.87188C100.922 3.87188 104.682 3.70965 105.579 3.6015L106.274 3.24459C106.989 3.24165 107.703 3.2959 108.41 3.40682C108.45 3.40817 108.49 3.41773 108.526 3.43493C108.563 3.45213 108.596 3.47661 108.623 3.5069C108.649 3.5372 108.67 3.57269 108.683 3.61124C108.696 3.6498 108.701 3.69063 108.699 3.73128C108.718 4.0046 108.642 4.27612 108.485 4.49917C108.452 4.55358 108.404 4.59756 108.347 4.6262C108.291 4.65484 108.227 4.66703 108.164 4.6614L99.619 4.93178V8.51165C100.911 8.51165 104.191 8.36023 105.174 8.25208L105.911 7.8411C106.625 7.83645 107.339 7.88343 108.047 7.9817C108.261 7.9817 108.389 8.11148 108.389 8.32779C108.395 8.46057 108.374 8.59323 108.329 8.71777C108.283 8.84231 108.212 8.95615 108.122 9.05241C108.035 9.1258 107.925 9.1643 107.812 9.16057L99.6403 9.52829V13.0433C99.6403 13.3677 99.7472 13.4975 100.11 13.4975C104.435 13.3593 108.733 12.7502 112.929 11.6805V2.03328C112.29 1.40028 111.498 0.948906 110.632 0.724626L110.814 0.129784C110.814 0.0216306 110.899 0 111.081 0C112.17 0.0798855 113.247 0.294171 114.285 0.638103C114.381 0.679589 114.461 0.751646 114.513 0.843365C114.565 0.935083 114.587 1.04147 114.574 1.14642L114.52 2.51997V8.70632L116.432 8.65225L117.329 8.11148ZM113.495 16.7637C113.557 16.7367 113.624 16.7227 113.692 16.7227C113.76 16.7227 113.827 16.7367 113.89 16.7637C114.201 16.9382 114.501 17.1333 114.787 17.3478C114.819 17.3919 114.835 17.4448 114.835 17.4992C114.835 17.5535 114.819 17.6065 114.787 17.6506L114.499 18.3968L114.424 22.1173C114.405 23.4236 114.255 24.7245 113.975 26H112.971C112.864 25.0699 112.832 23.4908 112.832 22.5175V18.1913C110.899 18.1913 105.238 18.2995 104.127 18.386C103.347 18.4309 102.576 18.5726 101.83 18.8078C101.064 18.5397 100.343 18.1529 99.6937 17.6614C99.6694 17.6541 99.6471 17.641 99.6287 17.6232C99.6104 17.6054 99.5964 17.5835 99.5881 17.5592C99.5797 17.5349 99.5772 17.5089 99.5807 17.4834C99.5842 17.458 99.5937 17.4337 99.6083 17.4126L99.7685 17.099C100.589 17.2575 101.422 17.3372 102.257 17.3369C103.496 17.3369 111.006 17.2072 112.832 17.0666L113.495 16.7637Z" fill="#937062"/>
</g>
<defs>
<clipPath id="clip0">
<rect width="120" height="26" fill="white"/>
</clipPath>
</defs>
</svg>
